<mxfile host="65bd71144e">
    <diagram id="AvYSxzY92IIhxPEVMShM" name="Page-1">
        <mxGraphModel dx="975" dy="753" grid="1" gridSize="10" guides="1" tooltips="1" connect="1" arrows="1" fold="1" page="1" pageScale="1" pageWidth="827" pageHeight="1169" math="0" shadow="0">
            <root>
                <mxCell id="0"/>
                <mxCell id="1" parent="0"/>
                <mxCell id="2" value="a" style="text;html=1;strokeColor=none;fillColor=#FF3333;align=center;verticalAlign=middle;whiteSpace=wrap;rounded=0;" vertex="1" parent="1">
                    <mxGeometry x="90" y="120" width="40" height="30" as="geometry"/>
                </mxCell>
                <mxCell id="3" value="d" style="text;html=1;strokeColor=none;fillColor=#FF3333;align=center;verticalAlign=middle;whiteSpace=wrap;rounded=0;" vertex="1" parent="1">
                    <mxGeometry x="140" y="120" width="40" height="30" as="geometry"/>
                </mxCell>
                <mxCell id="4" value="d" style="text;html=1;strokeColor=none;fillColor=#FF3333;align=center;verticalAlign=middle;whiteSpace=wrap;rounded=0;" vertex="1" parent="1">
                    <mxGeometry x="190" y="120" width="40" height="30" as="geometry"/>
                </mxCell>
                <mxCell id="5" value="i" style="text;html=1;strokeColor=none;fillColor=#FF3333;align=center;verticalAlign=middle;whiteSpace=wrap;rounded=0;" vertex="1" parent="1">
                    <mxGeometry x="240" y="120" width="40" height="30" as="geometry"/>
                </mxCell>
                <mxCell id="6" value="t" style="text;html=1;strokeColor=none;fillColor=#FF3333;align=center;verticalAlign=middle;whiteSpace=wrap;rounded=0;" vertex="1" parent="1">
                    <mxGeometry x="290" y="120" width="40" height="30" as="geometry"/>
                </mxCell>
                <mxCell id="7" value="i" style="text;html=1;strokeColor=none;fillColor=#FF3333;align=center;verticalAlign=middle;whiteSpace=wrap;rounded=0;" vertex="1" parent="1">
                    <mxGeometry x="340" y="120" width="40" height="30" as="geometry"/>
                </mxCell>
                <mxCell id="8" value="o" style="text;html=1;strokeColor=none;fillColor=#FF3333;align=center;verticalAlign=middle;whiteSpace=wrap;rounded=0;" vertex="1" parent="1">
                    <mxGeometry x="390" y="120" width="40" height="30" as="geometry"/>
                </mxCell>
                <mxCell id="9" value="n" style="text;html=1;strokeColor=none;fillColor=#FF3333;align=center;verticalAlign=middle;whiteSpace=wrap;rounded=0;" vertex="1" parent="1">
                    <mxGeometry x="440" y="120" width="40" height="30" as="geometry"/>
                </mxCell>
                <mxCell id="10" value="a" style="text;html=1;strokeColor=none;fillColor=#FF3333;align=center;verticalAlign=middle;whiteSpace=wrap;rounded=0;" vertex="1" parent="1">
                    <mxGeometry x="90" y="170" width="40" height="30" as="geometry"/>
                </mxCell>
                <mxCell id="11" value="d" style="text;html=1;strokeColor=none;fillColor=#FF3333;align=center;verticalAlign=middle;whiteSpace=wrap;rounded=0;" vertex="1" parent="1">
                    <mxGeometry x="140" y="170" width="40" height="30" as="geometry"/>
                </mxCell>
                <mxCell id="12" value="d" style="text;html=1;strokeColor=none;fillColor=#FF3333;align=center;verticalAlign=middle;whiteSpace=wrap;rounded=0;" vertex="1" parent="1">
                    <mxGeometry x="190" y="170" width="40" height="30" as="geometry"/>
                </mxCell>
                <mxCell id="13" value="e" style="text;html=1;strokeColor=none;fillColor=#66B2FF;align=center;verticalAlign=middle;whiteSpace=wrap;rounded=0;" vertex="1" parent="1">
                    <mxGeometry x="240" y="170" width="40" height="30" as="geometry"/>
                </mxCell>
                <mxCell id="14" value="n" style="text;html=1;strokeColor=none;fillColor=#FFFF33;align=center;verticalAlign=middle;whiteSpace=wrap;rounded=0;" vertex="1" parent="1">
                    <mxGeometry x="290" y="170" width="40" height="30" as="geometry"/>
                </mxCell>
                <mxCell id="15" value="d" style="text;html=1;strokeColor=none;fillColor=#66B2FF;align=center;verticalAlign=middle;whiteSpace=wrap;rounded=0;" vertex="1" parent="1">
                    <mxGeometry x="340" y="170" width="40" height="30" as="geometry"/>
                </mxCell>
                <mxCell id="16" value="u" style="text;html=1;strokeColor=none;fillColor=#66B2FF;align=center;verticalAlign=middle;whiteSpace=wrap;rounded=0;" vertex="1" parent="1">
                    <mxGeometry x="390" y="170" width="40" height="30" as="geometry"/>
                </mxCell>
                <mxCell id="17" value="m" style="text;html=1;strokeColor=none;fillColor=#66B2FF;align=center;verticalAlign=middle;whiteSpace=wrap;rounded=0;" vertex="1" parent="1">
                    <mxGeometry x="440" y="170" width="40" height="30" as="geometry"/>
                </mxCell>
                <mxCell id="18" value="a" style="text;html=1;strokeColor=none;fillColor=#FF3333;align=center;verticalAlign=middle;whiteSpace=wrap;rounded=0;" vertex="1" parent="1">
                    <mxGeometry x="90" y="220" width="40" height="30" as="geometry"/>
                </mxCell>
                <mxCell id="19" value="d" style="text;html=1;strokeColor=none;fillColor=#FF3333;align=center;verticalAlign=middle;whiteSpace=wrap;rounded=0;" vertex="1" parent="1">
                    <mxGeometry x="140" y="220" width="40" height="30" as="geometry"/>
                </mxCell>
                <mxCell id="20" value="d" style="text;html=1;strokeColor=none;fillColor=#FF3333;align=center;verticalAlign=middle;whiteSpace=wrap;rounded=0;" vertex="1" parent="1">
                    <mxGeometry x="190" y="220" width="40" height="30" as="geometry"/>
                </mxCell>
                <mxCell id="21" value="i" style="text;html=1;strokeColor=none;fillColor=#E6E6E6;align=center;verticalAlign=middle;whiteSpace=wrap;rounded=0;" vertex="1" parent="1">
                    <mxGeometry x="240" y="220" width="40" height="30" as="geometry"/>
                </mxCell>
                <mxCell id="22" value="t" style="text;html=1;strokeColor=none;fillColor=#E6E6E6;align=center;verticalAlign=middle;whiteSpace=wrap;rounded=0;" vertex="1" parent="1">
                    <mxGeometry x="290" y="220" width="40" height="30" as="geometry"/>
                </mxCell>
                <mxCell id="23" value="i" style="text;html=1;strokeColor=none;fillColor=#E6E6E6;align=center;verticalAlign=middle;whiteSpace=wrap;rounded=0;" vertex="1" parent="1">
                    <mxGeometry x="340" y="220" width="40" height="30" as="geometry"/>
                </mxCell>
                <mxCell id="24" value="o" style="text;html=1;strokeColor=none;fillColor=#E6E6E6;align=center;verticalAlign=middle;whiteSpace=wrap;rounded=0;" vertex="1" parent="1">
                    <mxGeometry x="390" y="220" width="40" height="30" as="geometry"/>
                </mxCell>
                <mxCell id="25" value="n" style="text;html=1;strokeColor=none;fillColor=#FFFF33;align=center;verticalAlign=middle;whiteSpace=wrap;rounded=0;" vertex="1" parent="1">
                    <mxGeometry x="440" y="220" width="40" height="30" as="geometry"/>
                </mxCell>
                <mxCell id="27" value="" style="ellipse;whiteSpace=wrap;html=1;strokeColor=default;fillColor=none;" vertex="1" parent="1">
                    <mxGeometry x="294" y="174" width="30" height="20" as="geometry"/>
                </mxCell>
                <mxCell id="28" value="" style="ellipse;whiteSpace=wrap;html=1;strokeColor=default;fillColor=none;" vertex="1" parent="1">
                    <mxGeometry x="444" y="224" width="30" height="20" as="geometry"/>
                </mxCell>
                <mxCell id="29" value="" style="endArrow=classic;startArrow=classic;html=1;exitX=1;exitY=1;exitDx=0;exitDy=0;entryX=0;entryY=0;entryDx=0;entryDy=0;" edge="1" parent="1" source="27" target="28">
                    <mxGeometry width="50" height="50" relative="1" as="geometry">
                        <mxPoint x="390" y="270" as="sourcePoint"/>
                        <mxPoint x="440" y="220" as="targetPoint"/>
                    </mxGeometry>
                </mxCell>
            </root>
        </mxGraphModel>
    </diagram>
</mxfile>